<svg xmlns="http://www.w3.org/2000/svg" version="1.1" xmlns:xlink="http://www.w3.org/1999/xlink" xmlns:svgjs="http://svgjs.dev/svgjs" width="1000" height="1000" viewBox="0 0 1000 1000"><rect width="1000" height="1000" fill="#000000"></rect><g transform="matrix(0.7,0,0,0.7,149.57575757575756,393.536382362796)"><svg viewBox="0 0 396 121" data-background-color="#ffffff" preserveAspectRatio="xMidYMid meet" height="305" width="1000" xmlns="http://www.w3.org/2000/svg" xmlns:xlink="http://www.w3.org/1999/xlink"><g id="tight-bounds" transform="matrix(1,0,0,1,0.2400000000000091,-0.16230569507408177)"><svg viewBox="0 0 395.52 121.32461139014814" height="121.32461139014814" width="395.52"><g><svg viewBox="0 0 597.7053122113208 183.34436875471698" height="121.32461139014814" width="395.52"><g transform="matrix(1,0,0,1,202.18531221132076,51.76778186163522)"><svg viewBox="0 0 395.52000000000004 79.80880503144654" height="79.80880503144654" width="395.52000000000004"><g><svg viewBox="0 0 395.52000000000004 79.80880503144654" height="79.80880503144654" width="395.52000000000004"><g><svg viewBox="0 0 395.52000000000004 79.80880503144654" height="79.80880503144654" width="395.52000000000004"><g transform="matrix(1,0,0,1,0,0)"><svg width="395.52000000000004" viewBox="0.45 -37.35 190.78 38.5" height="79.80880503144654" data-palette-color="#000000"><path d="M8.15-1.5L0.45 0.1Q1.75-6.8 3-13.45L3-13.45Q3.45-16.25 4-19.28 4.55-22.3 5.05-25.25 5.55-28.2 6-30.98 6.45-33.75 6.8-36.05L6.8-36.05 14.9-36.6Q14.05-33.1 13.23-29.3 12.4-25.5 11.7-21.9L11.7-21.9 16.65-22.45Q17.35-26 17.9-29.33 18.45-32.65 19.35-36.2L19.35-36.2Q20.5-36.4 21.9-36.52 23.3-36.65 24.5-36.75 25.7-36.85 26.53-36.93 27.35-37 27.35-37L27.35-37Q26.65-34.75 26.03-32.08 25.4-29.4 24.8-26.53 24.2-23.65 23.65-20.7 23.1-17.75 22.65-15.1L22.65-15.1Q21.55-8.75 20.6-2.1L20.6-2.1 12.8-1.2Q13.45-4.2 13.95-7.05L13.95-7.05Q14.45-9.45 14.98-12.05 15.5-14.65 15.8-16.5L15.8-16.5 10.95-16.05Q10.6-14.15 10.13-11.65 9.65-9.15 9.25-6.9L9.25-6.9Q8.7-4.2 8.15-1.5L8.15-1.5ZM38.65-2.45L22.5 0.05 29.05-35.5 44.85-36.85Q44.5-35.75 44.25-34.6L44.25-34.6Q44-33.65 43.77-32.63 43.55-31.6 43.4-30.8L43.4-30.8Q42.9-30.75 41.97-30.73 41.05-30.7 40-30.68 38.95-30.65 37.87-30.65 36.8-30.65 36-30.65L36-30.65 34.25-21.7Q35.8-21.8 37.15-21.85L37.15-21.85Q38.25-21.9 39.4-21.9 40.55-21.9 41.1-21.95L41.1-21.95Q40.9-20.55 40.72-19.2 40.55-17.85 40.3-16.45L40.3-16.45Q39.8-16.4 38.67-16.38 37.55-16.35 36.4-16.3L36.4-16.3Q35.1-16.25 33.55-16.2L33.55-16.2 31.85-7 39.15-8.15 38.65-2.45ZM51.55-1.8L43-0.75 45.3-10.8Q45.3-12.95 45.22-15.48 45.15-18 45-20.55 44.85-23.1 44.7-25.48 44.55-27.85 44.45-29.68 44.35-31.5 44.25-32.6 44.15-33.7 44.15-33.7L44.15-33.7 52.3-36.8 52.3-30.7Q52.3-29.45 52.3-28.15 52.3-26.85 52.27-25.6 52.25-24.35 52.25-23.25 52.25-22.15 52.25-21.4L52.25-21.4Q52.9-23.1 53.82-25.6 54.75-28.1 55.55-30.45L55.55-30.45Q56.5-33.2 57.5-36.25L57.5-36.25 65.25-34.5Q63.1-30.2 61.05-25.95L61.05-25.95Q60.2-24.1 59.25-22.13 58.3-20.15 57.34-18.18 56.4-16.2 55.5-14.35 54.6-12.5 53.85-10.9L53.85-10.9Q53.6-9.6 53.22-8.05 52.85-6.5 52.5-5.1L52.5-5.1Q52.05-3.45 51.55-1.8L51.55-1.8ZM90.69-12.55Q90.69-10.5 89.84-8.75 88.99-7 87.54-5.58 86.09-4.15 84.17-3.08 82.24-2 80.12-1.28 77.99-0.55 75.77-0.18 73.54 0.2 71.49 0.2L71.49 0.2Q69.64 0.2 68.04-0.1L68.04-0.1Q70.44-8.85 71.87-17.73 73.29-26.6 74.59-35.6L74.59-35.6Q77.19-36.15 79.99-36.58 82.79-37 85.79-37L85.79-37Q87.04-37 88.44-36.7 89.84-36.4 90.99-35.6 92.14-34.8 92.92-33.5 93.69-32.2 93.69-30.2L93.69-30.2Q93.69-28.3 93.06-26.65 92.44-25 91.47-23.65 90.49-22.3 89.24-21.33 87.99-20.35 86.69-19.85L86.69-19.85Q87.34-19.5 88.04-18.85 88.74-18.2 89.34-17.32 89.94-16.45 90.31-15.25 90.69-14.05 90.69-12.55L90.69-12.55ZM79.24-17.75Q79.04-16.55 78.87-15.63 78.69-14.7 78.54-13.85 78.39-13 78.22-12.08 78.04-11.15 77.84-9.9L77.84-9.9Q78.79-10 79.99-10.25 81.19-10.5 82.29-11.03 83.39-11.55 84.14-12.43 84.89-13.3 84.89-14.55L84.89-14.55Q84.89-15.45 84.42-16.05 83.94-16.65 83.22-17.05 82.49-17.45 81.64-17.63 80.79-17.8 80.04-17.8L80.04-17.8Q79.79-17.8 79.62-17.8 79.44-17.8 79.24-17.75L79.24-17.75ZM81.49-29.85Q81.39-29.3 81.27-28.55 81.14-27.8 80.99-26.98 80.84-26.15 80.67-25.35 80.49-24.55 80.39-23.95L80.39-23.95Q81.49-24.15 82.59-24.5 83.69-24.85 84.56-25.28 85.44-25.7 85.97-26.2 86.49-26.7 86.49-27.3L86.49-27.3Q86.49-28.05 86.04-28.53 85.59-29 84.87-29.3 84.14-29.6 83.37-29.73 82.59-29.85 81.99-29.85L81.99-29.85 81.49-29.85ZM110.29-9.75Q109.59-6.9 108.31-4.9 107.04-2.9 105.31-1.6 103.59-0.3 101.64 0.3 99.69 0.9 97.74 0.9L97.74 0.9Q96.59 0.9 95.39 0.53 94.19 0.15 93.24-0.6 92.29-1.35 91.66-2.5 91.04-3.65 91.04-5.2L91.04-5.2Q91.04-5.4 91.04-5.6 91.04-5.8 91.09-6L91.09-6Q91.29-8.05 91.74-10.95 92.19-13.85 92.69-17 93.19-20.15 93.79-23.33 94.39-26.5 94.86-29.1 95.34-31.7 95.69-33.43 96.04-35.15 96.14-35.55L96.14-35.55Q97.19-35.65 98.64-35.8 100.09-35.95 101.34-36.05L101.34-36.05Q102.89-36.2 104.39-36.35L104.39-36.35Q103.09-30.3 102.09-25.4L102.09-25.4Q101.64-23.3 101.21-21.2 100.79-19.1 100.41-17.35 100.04-15.6 99.76-14.33 99.49-13.05 99.31-12.25 99.14-11.45 98.91-10.23 98.69-9 98.69-8L98.69-8Q98.69-7.2 99.09-6.68 99.49-6.15 100.09-6.15L100.09-6.15Q100.94-6.15 101.49-6.83 102.04-7.5 102.41-8.45 102.79-9.4 102.96-10.38 103.14-11.35 103.29-11.9L103.29-11.9Q103.59-13.35 103.96-15.13 104.34-16.9 104.71-18.82 105.09-20.75 105.46-22.75 105.84-24.75 106.19-26.65L106.19-26.65Q107.04-31.05 107.84-35.75L107.84-35.75 115.44-36.25Q115.44-36.25 115.19-34.95 114.94-33.65 114.54-31.5 114.14-29.35 113.66-26.6 113.19-23.85 112.59-20.88 111.99-17.9 111.41-15.03 110.84-12.15 110.29-9.75L110.29-9.75ZM135.89-25.55Q135.89-22.95 135.14-20.03 134.39-17.1 133.04-14.23 131.69-11.35 129.71-8.72 127.74-6.1 125.24-4.13 122.74-2.15 119.76-0.95 116.79 0.25 113.44 0.25L113.44 0.25Q112.74 0.25 112.04 0.18 111.34 0.1 110.64 0L110.64 0Q111.99-6.9 113.29-13.45L113.29-13.45Q113.79-16.2 114.34-19.18 114.89-22.15 115.39-25.05 115.89-27.95 116.36-30.6 116.84-33.25 117.14-35.4L117.14-35.4Q119.29-35.8 121.49-36.15 123.69-36.5 125.99-36.5L125.99-36.5Q128.69-36.5 130.56-35.65 132.44-34.8 133.61-33.3 134.79-31.8 135.34-29.8 135.89-27.8 135.89-25.55L135.89-25.55ZM124.09-29.45Q123.54-26.5 122.94-23.8 122.34-21.1 121.74-18.35 121.14-15.6 120.54-12.6 119.94-9.6 119.39-6.05L119.39-6.05Q120.59-6.85 121.71-8.22 122.84-9.6 123.84-11.4 124.84-13.2 125.66-15.2 126.49-17.2 127.09-19.1 127.69-21 128.01-22.65 128.34-24.3 128.34-25.5L128.34-25.5Q128.34-27.35 127.31-28.4 126.29-29.45 124.09-29.45L124.09-29.45ZM157.93-25.55Q157.93-22.95 157.18-20.03 156.43-17.1 155.08-14.23 153.73-11.35 151.76-8.72 149.78-6.1 147.28-4.13 144.78-2.15 141.81-0.95 138.83 0.25 135.48 0.25L135.48 0.25Q134.78 0.25 134.08 0.18 133.38 0.1 132.68 0L132.68 0Q134.03-6.9 135.33-13.45L135.33-13.45Q135.83-16.2 136.38-19.18 136.93-22.15 137.43-25.05 137.93-27.95 138.41-30.6 138.88-33.25 139.18-35.4L139.18-35.4Q141.33-35.8 143.53-36.15 145.73-36.5 148.03-36.5L148.03-36.5Q150.73-36.5 152.61-35.65 154.48-34.8 155.66-33.3 156.83-31.8 157.38-29.8 157.93-27.8 157.93-25.55L157.93-25.55ZM146.13-29.45Q145.58-26.5 144.98-23.8 144.38-21.1 143.78-18.35 143.18-15.6 142.58-12.6 141.98-9.6 141.43-6.05L141.43-6.05Q142.63-6.85 143.76-8.22 144.88-9.6 145.88-11.4 146.88-13.2 147.71-15.2 148.53-17.2 149.13-19.1 149.73-21 150.06-22.65 150.38-24.3 150.38-25.5L150.38-25.5Q150.38-27.35 149.36-28.4 148.33-29.45 146.13-29.45L146.13-29.45ZM166.23-1.8L157.68-0.75 159.98-10.8Q159.98-12.95 159.91-15.48 159.83-18 159.68-20.55 159.53-23.1 159.38-25.48 159.23-27.85 159.13-29.68 159.03-31.5 158.93-32.6 158.83-33.7 158.83-33.7L158.83-33.7 166.98-36.8 166.98-30.7Q166.98-29.45 166.98-28.15 166.98-26.85 166.96-25.6 166.93-24.35 166.93-23.25 166.93-22.15 166.93-21.4L166.93-21.4Q167.58-23.1 168.51-25.6 169.43-28.1 170.23-30.45L170.23-30.45Q171.18-33.2 172.18-36.25L172.18-36.25 179.93-34.5Q177.78-30.2 175.73-25.95L175.73-25.95Q174.88-24.1 173.93-22.13 172.98-20.15 172.03-18.18 171.08-16.2 170.18-14.35 169.28-12.5 168.53-10.9L168.53-10.9Q168.28-9.6 167.91-8.05 167.53-6.5 167.18-5.1L167.18-5.1Q166.73-3.45 166.23-1.8L166.23-1.8ZM181.88-11.85Q180.43-11.85 178.98-11.75 177.53-11.65 176.08-11.55L176.08-11.55Q177.63-17.7 179.1-23.8 180.58-29.9 182.18-36.05L182.18-36.05Q183.13-36.2 184.35-36.35 185.58-36.5 186.83-36.7 188.08-36.9 189.25-37.05 190.43-37.2 191.23-37.35L191.23-37.35Q188.53-31.05 186.3-24.68 184.08-18.3 181.88-11.85L181.88-11.85ZM182.38-4Q182.38-3.05 181.95-2.1 181.53-1.15 180.73-0.43 179.93 0.3 178.73 0.73 177.53 1.15 175.98 1.15L175.98 1.15Q174.93 1.15 174.08 0.75 173.23 0.35 172.7-0.33 172.18-1 171.88-1.85 171.58-2.7 171.58-3.55L171.58-3.55Q171.58-4.5 171.88-5.38 172.18-6.25 172.8-6.93 173.43-7.6 174.35-8.05 175.28-8.5 176.58-8.5L176.58-8.5Q179.48-8.5 180.93-7.13 182.38-5.75 182.38-4L182.38-4Z" opacity="1" transform="matrix(1,0,0,1,0,0)" fill="#ffffff" class="undefined-text-0" data-fill-palette-color="primary" id="text-0"></path></svg></g></svg></g></svg></g></svg></g><g><svg viewBox="0 0 183.34436875471698 183.34436875471698" height="183.34436875471698" width="183.34436875471698"><g><svg></svg></g><g id="icon-0"><svg viewBox="0 0 183.34436875471698 183.34436875471698" height="183.34436875471698" width="183.34436875471698"><g><rect width="166.70756492327044" height="166.70756492327044" x="8.318401915723271" y="8.318401915723271" fill="#ffffff" data-fill-palette-color="accent"></rect><rect width="166.70756492327044" height="166.70756492327044" x="16.636803831446542" y="1.7763568394002505e-15" fill="#ffffff" opacity="0.5" data-fill-palette-color="accent"></rect></g><g transform="matrix(1,0,0,1,23.7668626163522,23.7668626163522)"><svg viewBox="0 0 135.81064352201258 135.81064352201258" height="135.81064352201258" width="135.81064352201258"><g><svg xmlns="http://www.w3.org/2000/svg" data-name="Layer 1" viewBox="9.895510000000002 9.895510000000002 80.20898 80.20898" x="0" y="0" height="135.81064352201258" width="135.81064352201258" class="icon-ju-0" data-fill-palette-color="background" id="ju-0"><path d="M50 90.104A40.104 40.104 0 1 1 90.104 50 40.15 40.15 0 0 1 50 90.104Zm0-76.5A36.396 36.396 0 1 0 86.396 50 36.437 36.437 0 0 0 50 13.604Zm7.696 58.402a15.656 15.656 0 0 1-6.067-1.473 8.206 8.206 0 0 0-2.41-0.749 13.604 13.604 0 0 0-2.967 0.654A21.074 21.074 0 0 1 40.56 71.499c-3.997 0-6.58-2.873-6.58-7.318 0-10.796 10.548-20.937 16.907-20.937 9.11 0 15.005 15.278 15.005 20.566C65.892 69.095 62.981 72.006 57.696 72.006ZM49.219 67.001a9.501 9.501 0 0 1 3.457 0.954 13.201 13.201 0 0 0 5.02 1.268c3.744 0 5.413-1.669 5.413-5.413 0-4.871-5.551-17.782-12.222-17.783-5.063 0-14.124 9.15-14.124 18.154 0 1.693 0.493 4.535 3.797 4.535a18.991 18.991 0 0 0 4.927-0.954A14.642 14.642 0 0 1 49.219 67.001ZM68.589 56.605c-3.757 0-5.835-4.813-5.835-8.139 0-3.541 2.511-7.286 4.885-7.286 3.966 0 5.956 5.227 5.956 8.152C73.595 52.256 72.262 56.605 68.589 56.605ZM67.682 43.964c-0.561 0.194-2.145 2.199-2.145 4.502 0 2.361 1.437 5.356 3.052 5.356 1.552 0 2.223-2.974 2.223-4.49C70.812 47.508 69.493 44.018 67.682 43.964Zm-9.104 0.654c-4.106 0-8.29-4.231-8.29-8.385 0-3.777 2.501-8.339 5.607-8.338 5.548 0 8.061 7.924 8.06 10.33C63.955 41.304 62.273 44.618 58.578 44.618ZM55.895 30.678c-0.773 0-2.823 2.523-2.823 5.555 0 2.565 2.985 5.602 5.506 5.602s2.594-3.241 2.594-3.61C61.172 36.95 59.401 30.678 55.895 30.678ZM31.283 56.496c-3.67 0-5.002-4.35-5.002-7.273 0-2.767 2.192-8.152 6.21-8.153 2.38 0 4.993 3.87 4.994 7.396C37.485 52.18 34.776 56.496 31.283 56.496Zm1.162-12.642c-1.956 0.059-3.381 3.779-3.381 5.369 0 1.517 0.67 4.49 2.219 4.49 1.729 0 3.419-3.005 3.418-5.247C34.702 46.281 33.104 44.084 32.445 43.854Zm8.914 1.069c-3.693 0-5.376-3.314-5.376-6.394 0-2.406 2.513-10.33 8.059-10.33 3.106 0 5.607 4.562 5.608 8.339C49.65 40.691 45.465 44.923 41.359 44.923Zm2.683-13.941c-3.505 0-5.276 6.272-5.276 7.547 0 0.369 0.072 3.61 2.593 3.611 2.522 0 5.508-3.036 5.508-5.602C46.867 33.506 44.816 30.982 44.042 30.982Z" fill="#ffffff" data-fill-palette-color="background"></path></svg></g></svg></g></svg></g></svg></g></svg></g><defs></defs></svg><rect width="395.52" height="121.32461139014814" fill="none" stroke="none" visibility="hidden"></rect></g></svg></g></svg>